<?xml version="1.0" encoding="UTF-8" standalone="no"?>
<svg
   xmlns:dc="http://purl.org/dc/elements/1.1/"
   xmlns:cc="http://creativecommons.org/ns#"
   xmlns:rdf="http://www.w3.org/1999/02/22-rdf-syntax-ns#"
   xmlns:svg="http://www.w3.org/2000/svg"
   xmlns="http://www.w3.org/2000/svg"
   viewBox="0 0 2212.9734 486.39999"
   height="486.39999"
   width="2212.9734"
   xml:space="preserve"
   id="svg2"
   version="1.1"><metadata
     id="metadata8"><rdf:RDF><cc:Work
         rdf:about=""><dc:format>image/svg+xml</dc:format><dc:type
           rdf:resource="http://purl.org/dc/dcmitype/StillImage" /></cc:Work></rdf:RDF></metadata><defs
     id="defs6"><clipPath
       id="clipPath22"
       clipPathUnits="userSpaceOnUse"><path
         id="path20"
         d="M 0,364.8 H 1659.733 V 0 H 0 Z" /></clipPath></defs><g
     transform="matrix(1.3333333,0,0,-1.3333333,0,486.4)"
     id="g10"><g
       transform="translate(75.9009,35.0138)"
       id="g12"><path
         id="path14"
         style="fill:#ffffff;fill-opacity:1;fill-rule:nonzero;stroke:none"
         d="M 0,0 -28.695,78.855 H -13.36 L 5.695,26.833 24.751,78.855 H 38.883 L 57.939,26.833 76.884,78.855 H 92.33 L 63.634,0 H 52.244 L 31.762,55.858 11.391,0 Z" /></g><g
       id="g16"><g
         clip-path="url(#clipPath22)"
         id="g18"><g
           transform="translate(188.6016,72.4708)"
           id="g24"><path
             id="path26"
             style="fill:#ffffff;fill-opacity:1;fill-rule:nonzero;stroke:none"
             d="m 0,0 h 35.812 v 7.886 c 0,2.043 -0.129,3.193 -0.383,3.449 -0.254,0.256 -1.404,0.383 -3.45,0.383 H 3.833 c -2.046,0 -3.196,-0.127 -3.45,-0.383 C 0.125,11.079 0,9.929 0,7.886 Z m 0.766,-37.457 c -4.162,0 -7.723,1.479 -10.678,4.436 -2.959,2.958 -4.438,6.516 -4.438,10.678 v 33.295 c 0,4.162 1.479,7.72 4.438,10.68 2.955,2.956 6.516,4.434 10.678,4.434 h 34.28 c 4.162,0 7.723,-1.478 10.678,-4.434 2.959,-2.96 4.438,-6.518 4.438,-10.68 V -12.924 H 0 v -6.353 c 0,-2.045 0.125,-3.195 0.383,-3.449 0.254,-0.256 1.404,-0.383 3.45,-0.383 h 46.329 v -14.348 z" /></g><g
           transform="translate(302.7188,49.5797)"
           id="g28"><path
             id="path30"
             style="fill:#ffffff;fill-opacity:1;fill-rule:nonzero;stroke:none"
             d="m 0,0 h 42.167 c 1.97,0 3.102,0.127 3.396,0.383 C 45.853,0.64 46,1.79 46,3.835 v 10.622 c 0,2.043 -0.147,3.193 -0.437,3.452 -0.294,0.254 -1.426,0.383 -3.396,0.383 L 0,18.292 c -2.045,0 -3.195,-0.129 -3.449,-0.383 C -3.708,17.65 -3.833,16.5 -3.833,14.457 V 3.835 C -3.833,1.79 -3.708,0.64 -3.449,0.383 -3.195,0.127 -2.045,0 0,0 m 0,32.858 h 38.99 c 2.046,0 3.177,0.127 3.396,0.383 0.218,0.254 0.33,1.404 0.33,3.449 v 9.201 c 0,2.043 -0.112,3.193 -0.33,3.449 -0.219,0.257 -1.35,0.384 -3.396,0.384 H 0 c -2.045,0 -3.195,-0.127 -3.449,-0.384 -0.259,-0.256 -0.384,-1.406 -0.384,-3.449 V 36.69 c 0,-2.045 0.125,-3.195 0.384,-3.449 C -3.195,32.985 -2.045,32.858 0,32.858 M -18.29,-14.566 V 64.29 h 60.457 c 4.163,0 7.737,-1.498 10.732,-4.49 2.995,-2.995 4.492,-6.571 4.492,-10.734 V 33.625 c 0,-0.95 -0.076,-1.863 -0.219,-2.739 -0.147,-0.876 -0.401,-1.716 -0.766,-2.518 1.239,-1.682 2.246,-3.434 3.012,-5.259 0.767,-1.825 1.15,-3.652 1.15,-5.474 V 0.658 c 0,-4.163 -1.497,-7.741 -4.492,-10.734 -2.994,-2.995 -6.609,-4.49 -10.843,-4.49 z" /></g><g
           transform="translate(374.7852,35.0138)"
           id="g32"><path
             id="path34"
             style="fill:#ffffff;fill-opacity:1;fill-rule:nonzero;stroke:none"
             d="m 0,0 v 48.409 c 0,4.162 1.479,7.72 4.434,10.68 2.959,2.956 6.52,4.434 10.678,4.434 H 50.38 V 49.175 H 18.182 c -2.045,0 -3.195,-0.127 -3.453,-0.383 -0.254,-0.256 -0.384,-1.406 -0.384,-3.449 L 14.345,0 Z" /></g><g
           transform="translate(446.1958,72.4708)"
           id="g36"><path
             id="path38"
             style="fill:#ffffff;fill-opacity:1;fill-rule:nonzero;stroke:none"
             d="m 0,0 h 35.813 v 7.886 c 0,2.043 -0.13,3.193 -0.384,3.449 -0.254,0.256 -1.404,0.383 -3.449,0.383 H 3.833 c -2.046,0 -3.196,-0.127 -3.45,-0.383 C 0.125,11.079 0,9.929 0,7.886 Z m 0.767,-37.457 c -4.163,0 -7.724,1.479 -10.678,4.436 -2.959,2.958 -4.439,6.516 -4.439,10.678 v 33.295 c 0,4.162 1.48,7.72 4.439,10.68 2.954,2.956 6.515,4.434 10.678,4.434 h 34.279 c 4.162,0 7.723,-1.478 10.678,-4.434 2.959,-2.96 4.439,-6.518 4.439,-10.68 V -12.924 H 0 v -6.353 c 0,-2.045 0.125,-3.195 0.383,-3.449 0.254,-0.256 1.404,-0.383 3.45,-0.383 h 46.33 v -14.348 z" /></g><g
           transform="translate(520.3389,72.4708)"
           id="g40"><path
             id="path42"
             style="fill:#ffffff;fill-opacity:1;fill-rule:nonzero;stroke:none"
             d="m 0,0 h 35.812 v 7.886 c 0,2.043 -0.129,3.193 -0.383,3.449 -0.254,0.256 -1.404,0.383 -3.45,0.383 H 3.833 c -2.046,0 -3.196,-0.127 -3.45,-0.383 C 0.125,11.079 0,9.929 0,7.886 Z m 0.766,-37.457 c -4.162,0 -7.723,1.479 -10.678,4.436 -2.959,2.958 -4.438,6.516 -4.438,10.678 v 33.295 c 0,4.162 1.479,7.72 4.438,10.68 2.955,2.956 6.516,4.434 10.678,4.434 h 34.28 c 4.162,0 7.723,-1.478 10.678,-4.434 2.959,-2.96 4.438,-6.518 4.438,-10.68 V -12.924 H 0 v -6.353 c 0,-2.045 0.125,-3.195 0.383,-3.449 0.254,-0.256 1.404,-0.383 3.45,-0.383 h 46.329 v -14.348 z" /></g><g
           transform="translate(596.9996,49.3615)"
           id="g44"><path
             id="path46"
             style="fill:#ffffff;fill-opacity:1;fill-rule:nonzero;stroke:none"
             d="m 0,0 h 28.147 c 2.045,0 3.195,0.127 3.454,0.383 0.254,0.254 0.383,1.404 0.383,3.45 v 27.162 c 0,2.043 -0.129,3.193 -0.383,3.449 -0.259,0.257 -1.409,0.384 -3.454,0.384 L 0,34.828 c -2.042,0 -3.191,-0.127 -3.45,-0.384 -0.254,-0.256 -0.383,-1.406 -0.383,-3.449 V 3.833 c 0,-2.046 0.129,-3.196 0.383,-3.45 C -3.191,0.127 -2.042,0 0,0 m -3.173,-14.348 c -4.162,0 -7.723,1.48 -10.678,4.437 -2.959,2.957 -4.439,6.515 -4.439,10.678 v 33.294 c 0,4.163 1.48,7.721 4.439,10.68 2.955,2.957 6.516,4.434 10.678,4.434 h 35.157 v 20.81 H 46.33 v -84.333 z" /></g><g
           transform="translate(707.4048,49.5797)"
           id="g48"><path
             id="path50"
             style="fill:#ffffff;fill-opacity:1;fill-rule:nonzero;stroke:none"
             d="m 0,0 h 42.163 c 1.974,0 3.106,0.127 3.396,0.383 C 45.848,0.64 46,1.79 46,3.835 v 42.056 c 0,2.043 -0.152,3.193 -0.441,3.449 -0.29,0.257 -1.422,0.384 -3.396,0.384 H 0 c -2.046,0 -3.195,-0.127 -3.454,-0.384 -0.254,-0.256 -0.383,-1.406 -0.383,-3.449 V 3.835 C -3.837,1.79 -3.708,0.64 -3.454,0.383 -3.195,0.127 -2.046,0 0,0 M -18.294,-14.566 V 64.29 h 63.523 c 4.238,0 7.852,-1.498 10.847,-4.49 2.99,-2.995 4.487,-6.571 4.487,-10.734 V 0.658 c 0,-4.163 -1.497,-7.741 -4.487,-10.734 -2.995,-2.995 -6.609,-4.49 -10.847,-4.49 z" /></g><g
           transform="translate(797.8672,49.3615)"
           id="g52"><path
             id="path54"
             style="fill:#ffffff;fill-opacity:1;fill-rule:nonzero;stroke:none"
             d="m 0,0 h 28.147 c 2.046,0 3.195,0.127 3.45,0.383 0.254,0.254 0.382,1.404 0.382,3.45 v 27.162 c 0,2.043 -0.128,3.193 -0.382,3.449 -0.255,0.257 -1.404,0.384 -3.45,0.384 L 0,34.828 c -2.045,0 -3.195,-0.127 -3.449,-0.384 -0.259,-0.256 -0.384,-1.406 -0.384,-3.449 V 3.833 c 0,-2.046 0.125,-3.196 0.384,-3.45 C -3.195,0.127 -2.045,0 0,0 m -3.066,-14.348 c -4.163,0 -7.723,1.48 -10.678,4.437 -2.959,2.957 -4.439,6.515 -4.439,10.678 v 33.294 c 0,4.163 1.48,7.721 4.439,10.68 2.955,2.957 6.515,4.434 10.678,4.434 h 34.279 c 4.162,0 7.724,-1.477 10.678,-4.434 2.959,-2.959 4.439,-6.517 4.439,-10.68 V 0.767 c 0,-4.163 -1.48,-7.721 -4.439,-10.678 -2.954,-2.957 -6.516,-4.437 -10.678,-4.437 z" /></g><g
           transform="translate(855.8018,35.0138)"
           id="g56"><path
             id="path58"
             style="fill:#ffffff;fill-opacity:1;fill-rule:nonzero;stroke:none"
             d="m 0,0 v 63.523 h 78.746 c 4.163,0 7.723,-1.478 10.678,-4.434 2.959,-2.96 4.439,-6.518 4.439,-10.68 V 0 H 79.624 v 45.343 c 0,2.043 -0.147,3.193 -0.436,3.449 -0.295,0.256 -1.427,0.383 -3.396,0.383 H 58.046 c -2.042,0 -3.195,-0.127 -3.45,-0.383 -0.254,-0.256 -0.383,-1.406 -0.383,-3.449 V 0 H 39.756 v 45.343 c 0,2.043 -0.129,3.193 -0.383,3.449 -0.254,0.256 -1.404,0.383 -3.449,0.383 H 18.182 c -2.045,0 -3.195,-0.127 -3.449,-0.383 C 14.475,48.536 14.35,47.386 14.35,45.343 V 0 Z" /></g><g
           transform="translate(980.8824,49.3615)"
           id="g60"><path
             id="path62"
             style="fill:#ffffff;fill-opacity:1;fill-rule:nonzero;stroke:none"
             d="M 0,0 H 31.979 V 11.718 H -3.837 V 3.833 c 0,-2.046 0.129,-3.196 0.383,-3.45 C -3.195,0.127 -2.046,0 0,0 m -3.071,-14.348 c -4.158,0 -7.719,1.48 -10.678,4.437 -2.954,2.957 -4.434,6.515 -4.434,10.678 v 23.875 h 50.162 v 6.353 c 0,2.043 -0.128,3.193 -0.383,3.449 -0.258,0.257 -1.408,0.384 -3.449,0.384 h -46.33 v 14.347 h 49.396 c 4.162,0 7.719,-1.477 10.678,-4.434 2.955,-2.959 4.434,-6.517 4.434,-10.68 v -48.409 z" /></g><path
           id="path64"
           style="fill:#ffffff;fill-opacity:1;fill-rule:nonzero;stroke:none"
           d="m 1038.705,98.537 h 14.346 V 35.014 h -14.346 z m 0,20.809 h 14.346 v -14.457 h -14.346 z" /><g
           transform="translate(1061.5938,35.0138)"
           id="g66"><path
             id="path68"
             style="fill:#ffffff;fill-opacity:1;fill-rule:nonzero;stroke:none"
             d="m 0,0 v 63.523 h 49.396 c 4.162,0 7.718,-1.478 10.678,-4.434 2.959,-2.96 4.434,-6.518 4.434,-10.68 V 0 H 50.162 v 45.343 c 0,2.043 -0.129,3.193 -0.383,3.449 -0.258,0.256 -1.408,0.383 -3.449,0.383 H 18.183 c -2.046,0 -3.196,-0.127 -3.45,-0.383 C 14.475,48.536 14.35,47.386 14.35,45.343 V 0 Z" /></g><g
           transform="translate(1171.5532,35.0138)"
           id="g70"><path
             id="path72"
             style="fill:#ffffff;fill-opacity:1;fill-rule:nonzero;stroke:none"
             d="M 0,0 V 78.855 H 15.883 L 64.29,21.247 V 78.855 H 78.858 L 78.858,0 H 62.975 L 14.457,57.718 V 0 Z" /></g><g
           transform="translate(1280.4214,49.3615)"
           id="g74"><path
             id="path76"
             style="fill:#ffffff;fill-opacity:1;fill-rule:nonzero;stroke:none"
             d="M 0,0 H 31.979 V 11.718 H -3.837 V 3.833 c 0,-2.046 0.129,-3.196 0.383,-3.45 C -3.195,0.127 -2.046,0 0,0 m -3.071,-14.348 c -4.158,0 -7.719,1.48 -10.678,4.437 -2.954,2.957 -4.434,6.515 -4.434,10.678 v 23.875 h 50.162 v 6.353 c 0,2.043 -0.128,3.193 -0.383,3.449 -0.258,0.257 -1.408,0.384 -3.449,0.384 h -46.33 v 14.347 h 49.396 c 4.162,0 7.719,-1.477 10.678,-4.434 2.955,-2.959 4.434,-6.517 4.434,-10.68 v -48.409 z" /></g><g
           transform="translate(1336.2744,35.0138)"
           id="g78"><path
             id="path80"
             style="fill:#ffffff;fill-opacity:1;fill-rule:nonzero;stroke:none"
             d="m 0,0 v 63.523 h 78.747 c 4.162,0 7.722,-1.478 10.677,-4.434 2.959,-2.96 4.439,-6.518 4.439,-10.68 V 0 H 79.625 v 45.343 c 0,2.043 -0.148,3.193 -0.437,3.449 -0.294,0.256 -1.426,0.383 -3.396,0.383 H 58.046 c -2.041,0 -3.195,-0.127 -3.449,-0.383 -0.254,-0.256 -0.384,-1.406 -0.384,-3.449 V 0 H 39.756 v 45.343 c 0,2.043 -0.129,3.193 -0.383,3.449 -0.254,0.256 -1.404,0.383 -3.449,0.383 H 18.183 c -2.046,0 -3.196,-0.127 -3.45,-0.383 C 14.475,48.536 14.35,47.386 14.35,45.343 V 0 Z" /></g><g
           transform="translate(1457.4067,72.4708)"
           id="g82"><path
             id="path84"
             style="fill:#ffffff;fill-opacity:1;fill-rule:nonzero;stroke:none"
             d="m 0,0 h 35.813 v 7.886 c 0,2.043 -0.13,3.193 -0.384,3.449 -0.254,0.256 -1.404,0.383 -3.45,0.383 H 3.832 C 1.787,11.718 0.637,11.591 0.383,11.335 0.125,11.079 0,9.929 0,7.886 Z m 0.767,-37.457 c -4.163,0 -7.724,1.479 -10.678,4.436 -2.959,2.958 -4.439,6.516 -4.439,10.678 v 33.295 c 0,4.162 1.48,7.72 4.439,10.68 2.954,2.956 6.515,4.434 10.678,4.434 h 34.279 c 4.162,0 7.723,-1.478 10.678,-4.434 2.959,-2.96 4.438,-6.518 4.438,-10.68 V -12.924 H 0 v -6.353 c 0,-2.045 0.125,-3.195 0.383,-3.449 0.254,-0.256 1.404,-0.383 3.449,-0.383 h 46.33 v -14.348 z" /></g><g
           transform="translate(1533.6304,35.0138)"
           id="g86"><path
             id="path88"
             style="fill:#ffffff;fill-opacity:1;fill-rule:nonzero;stroke:none"
             d="m 0,0 c -4.162,0 -7.719,1.479 -10.678,4.437 -2.959,2.957 -4.434,6.515 -4.434,10.677 v 2.409 h 14.345 v -0.657 c 0,-1.168 0.13,-1.881 0.384,-2.135 0.254,-0.256 0.967,-0.383 2.135,-0.383 h 30.776 c 1.167,0 1.881,0.127 2.135,0.383 0.258,0.254 0.383,0.967 0.383,2.135 v 5.149 c 0,1.166 -0.125,1.879 -0.383,2.135 -0.254,0.254 -0.968,0.383 -2.135,0.383 L 0,24.533 c -4.162,0 -7.719,1.495 -10.678,4.49 -2.959,2.995 -4.434,6.536 -4.434,10.624 v 8.762 c 0,4.162 1.475,7.72 4.434,10.68 2.959,2.956 6.516,4.434 10.678,4.434 h 34.279 c 4.163,0 7.742,-1.478 10.737,-4.434 2.99,-2.96 4.487,-6.518 4.487,-10.68 V 46 H 35.046 v 0.657 c 0,1.168 -0.125,1.879 -0.383,2.135 -0.254,0.256 -0.968,0.383 -2.135,0.383 H 1.752 c -1.168,0 -1.881,-0.127 -2.135,-0.383 -0.254,-0.256 -0.384,-0.967 -0.384,-2.135 V 41.51 c 0,-1.17 0.13,-1.881 0.384,-2.137 0.254,-0.256 0.967,-0.383 2.135,-0.383 h 32.527 c 4.163,0 7.742,-1.497 10.737,-4.49 2.99,-2.995 4.487,-6.536 4.487,-10.625 v -8.761 c 0,-4.162 -1.497,-7.72 -4.487,-10.677 C 42.021,1.479 38.442,0 34.279,0 Z" /></g><g
           transform="translate(165.628,252.11)"
           id="g90"><path
             id="path92"
             style="fill:#f95500;fill-opacity:1;fill-rule:nonzero;stroke:none"
             d="m 0,0 c -26.367,1.326 -46.736,2.387 -46.736,10.209 0,7.752 7.467,12.213 17.558,14.67 8.378,2.04 18.563,2.7 27.803,2.7 9.229,0 17.821,-0.677 25.167,-2.7 8.965,-2.468 16.074,-6.944 20.195,-14.67 h 68.604 c -6.248,55.688 -55.108,62.716 -113.966,63.114 -58.982,0 -113.965,-12.199 -113.965,-63.114 -0.125,-44.55 65.73,-47.997 112.591,-50.517 26.367,-1.325 46.736,-2.519 46.736,-10.341 0,-13.789 -24.992,-17.37 -45.362,-17.37 -20.493,0 -37.863,3.581 -45.361,17.37 h -68.604 c 6.248,-55.29 55.108,-62.848 113.965,-62.981 58.982,0 113.966,12.066 113.966,62.981 C 112.716,-5.966 46.861,-2.519 0,0" /></g><g
           transform="translate(165.628,252.11)"
           id="g94"><path
             id="path96"
             style="fill:none;stroke:#ffffff;stroke-width:4;stroke-linecap:butt;stroke-linejoin:miter;stroke-miterlimit:10;stroke-dasharray:none;stroke-opacity:1"
             d="m 0,0 c -26.367,1.326 -46.736,2.387 -46.736,10.209 0,7.752 7.467,12.213 17.558,14.67 8.378,2.04 18.563,2.7 27.803,2.7 9.229,0 17.821,-0.677 25.167,-2.7 8.965,-2.468 16.074,-6.944 20.195,-14.67 h 68.604 c -6.248,55.688 -55.108,62.716 -113.966,63.114 -58.982,0 -113.965,-12.199 -113.965,-63.114 -0.125,-44.55 65.73,-47.997 112.591,-50.517 26.367,-1.325 46.736,-2.519 46.736,-10.341 0,-13.789 -24.992,-17.37 -45.362,-17.37 -20.493,0 -37.863,3.581 -45.361,17.37 h -68.604 c 6.248,-55.29 55.108,-62.848 113.965,-62.981 58.982,0 113.966,12.066 113.966,62.981 C 112.716,-5.966 46.861,-2.519 0,0 Z" /></g><g
           transform="translate(1578.6372,286.3888)"
           id="g98"><path
             id="path100"
             style="fill:#ffffff;fill-opacity:1;fill-rule:nonzero;stroke:none"
             d="M 0,0 H 12.166 V -2.333 H 7.525 V -17.435 H 4.666 v 15.102 l -4.666,0 z" /></g><g
           transform="translate(1593.6851,286.3888)"
           id="g102"><path
             id="path104"
             style="fill:#ffffff;fill-opacity:1;fill-rule:nonzero;stroke:none"
             d="M 0,0 H 3.085 L 9.206,-13.672 15.302,0 h 3.06 v -17.435 h -2.86 V -5.494 L 10.185,-17.435 H 8.202 L 2.859,-5.494 V -17.435 H 0 Z" /></g><path
           id="path106"
           style="fill:#ffffff;fill-opacity:1;fill-rule:nonzero;stroke:none"
           d="m 1067.028,142.723 h -42.351 v 33.699 h 42.351 z" /><g
           transform="translate(1218.4019,190.57)"
           id="g108"><path
             id="path110"
             style="fill:#ffffff;fill-opacity:1;fill-rule:nonzero;stroke:none"
             d="m 0,0 c -2.667,-38.929 -34.834,-50.591 -73.951,-50.591 -40.733,0.086 -74.355,12.605 -74.193,56.251 v 8.403 c -0.162,43.56 33.46,56.079 74.193,56.25 C -34.834,70.228 -2.667,58.566 0,19.722 h -43.401 c -3.96,11.319 -16.002,13.977 -30.55,13.977 -17.296,-0.257 -32.005,-3.515 -31.762,-22.466 V 8.404 c -0.243,-18.779 14.466,-22.209 31.762,-22.467 14.548,0 26.671,2.745 30.55,14.063 z" /></g><g
           transform="translate(1334.7754,201.8893)"
           id="g112"><path
             id="path114"
             style="fill:#ffffff;fill-opacity:1;fill-rule:nonzero;stroke:none"
             d="M 0,0 C 0.242,18.778 -14.467,22.208 -31.762,22.465 -49.138,22.208 -63.848,18.778 -63.606,0 v -2.83 c -0.242,-18.864 14.468,-22.294 31.844,-22.552 C -14.467,-25.124 0.242,-21.694 0,-2.83 Z M 42.351,2.744 V -5.66 c 0.16,-43.56 -33.299,-56.164 -74.113,-56.25 -40.895,0.086 -74.355,12.69 -74.194,56.25 v 8.404 c -0.161,43.645 33.299,56.164 74.194,56.25 40.895,0 74.113,-12.691 74.113,-56.25" /></g><g
           transform="translate(1389.6455,258.0538)"
           id="g116"><path
             id="path118"
             style="fill:#ffffff;fill-opacity:1;fill-rule:nonzero;stroke:none"
             d="M 0,0 H 53.018 L 95.368,-57.623 137.799,0 h 52.937 v -115.245 h -42.35 v 61.481 l -42.43,-61.481 H 84.78 l -42.431,61.481 v -61.481 H 0 Z" /></g><g
           transform="translate(299.7076,264.3087)"
           id="g120"><path
             id="path122"
             style="fill:#f95500;fill-opacity:1;fill-rule:nonzero;stroke:none"
             d="m 0,0 h 77.851 v -121.718 h 65.481 V 0 h 77.851 V 56.483 H 0 Z" /></g><g
           transform="translate(299.7076,264.3087)"
           id="g124"><path
             id="path126"
             style="fill:none;stroke:#ffffff;stroke-width:4;stroke-linecap:butt;stroke-linejoin:miter;stroke-miterlimit:10;stroke-dasharray:none;stroke-opacity:1"
             d="m 0,0 h 77.851 v -121.718 h 65.481 V 0 h 77.851 V 56.483 H 0 Z" /></g><g
           transform="translate(704.9576,321.0573)"
           id="g128"><path
             id="path130"
             style="fill:#f95500;fill-opacity:1;fill-rule:nonzero;stroke:none"
             d="m 0,0 v -91.355 c 0.375,-29.302 -22.368,-34.341 -49.11,-34.739 -26.867,0.398 -49.485,5.437 -49.236,34.739 V 0 h -65.48 v -95.73 c -0.249,-67.356 51.735,-86.714 114.716,-86.847 62.981,0.133 114.965,19.491 114.715,86.847 V -56.749 -0.265 0 Z" /></g><g
           transform="translate(704.9576,321.0573)"
           id="g132"><path
             id="path134"
             style="fill:none;stroke:#ffffff;stroke-width:4;stroke-linecap:butt;stroke-linejoin:miter;stroke-miterlimit:10;stroke-dasharray:none;stroke-opacity:1"
             d="m 0,0 v -91.355 c 0.375,-29.302 -22.368,-34.341 -49.11,-34.739 -26.867,0.398 -49.485,5.437 -49.236,34.739 V 0 h -65.48 v -95.73 c -0.249,-67.356 51.735,-86.714 114.716,-86.847 62.981,0.133 114.965,19.491 114.715,86.847 V -56.749 -0.265 0 Z" /></g><g
           transform="translate(928.335,199.0739)"
           id="g136"><path
             id="path138"
             style="fill:#f95500;fill-opacity:1;fill-rule:nonzero;stroke:none"
             d="M 0,0 H -71.729 V 37.963 65.235 H 0 c 16.995,0 26.617,-14.586 26.617,-32.618 C 26.617,14.718 16.995,0 0,0 M 12.246,121.718 H -137.209 V 90.337 65.235 37.963 -56.483 H 12.246 c 46.111,-0.663 80.351,40.705 79.976,89.1 0.375,48.661 -33.865,89.764 -79.976,89.101" /></g><g
           transform="translate(928.335,199.0739)"
           id="g140"><path
             id="path142"
             style="fill:none;stroke:#ffffff;stroke-width:4;stroke-linecap:butt;stroke-linejoin:miter;stroke-miterlimit:10;stroke-dasharray:none;stroke-opacity:1"
             d="M 0,0 H -71.729 V 37.963 65.235 H 0 c 16.995,0 26.617,-14.586 26.617,-32.618 C 26.617,14.718 16.995,0 0,0 Z M 12.246,121.718 H -137.209 V 90.337 65.235 37.963 -56.483 H 12.246 c 46.111,-0.663 80.351,40.705 79.976,89.1 0.375,48.661 -33.865,89.764 -79.976,89.101 z" /></g><g
           transform="translate(121.3321,167.4386)"
           id="g144"><path
             id="path146"
             style="fill:#f95500;fill-opacity:1;fill-rule:nonzero;stroke:none"
             d="m 0,0 c -0.273,3.874 -3.634,6.792 -7.508,6.52 -3.873,-0.273 -6.792,-3.634 -6.52,-7.508 0.273,-3.873 3.634,-6.792 7.508,-6.52 C -2.646,-7.235 0.272,-3.874 0,0" /></g><g
           transform="translate(221.8653,166.7277)"
           id="g148"><path
             id="path150"
             style="fill:#f95500;fill-opacity:1;fill-rule:nonzero;stroke:none"
             d="m 0,0 c -0.273,3.874 -3.634,6.792 -7.508,6.52 -3.873,-0.273 -6.792,-3.634 -6.519,-7.508 0.272,-3.873 3.633,-6.793 7.507,-6.52 C -2.646,-7.235 0.273,-3.874 0,0" /></g><g
           transform="translate(170.6651,159.5275)"
           id="g152"><path
             id="path154"
             style="fill:#f95500;fill-opacity:1;fill-rule:nonzero;stroke:none"
             d="m 0,0 c -0.272,3.874 -3.634,6.792 -7.507,6.52 -3.874,-0.273 -6.793,-3.634 -6.52,-7.508 0.273,-3.873 3.634,-6.792 7.507,-6.52 C -2.646,-7.235 0.273,-3.874 0,0" /></g></g></g></g></svg>