<?xml version="1.0" encoding="UTF-8"?>
<svg width="16px" height="16px" viewBox="0 0 16 16" version="1.1" xmlns="http://www.w3.org/2000/svg" xmlns:xlink="http://www.w3.org/1999/xlink">
    <!-- Generator: sketchtool 63.1 (101010) - https://sketch.com -->
    <title>36169052-FC6F-45E9-B4A5-248AADC5F7B8</title>
    <desc>Created with sketchtool.</desc>
    <g id="02.-WEB.DASHBOARD" stroke="none" stroke-width="1" fill="none" fill-rule="evenodd">
        <g id="GWA-WEB_DASHBOARD-POPUP" transform="translate(-1405.000000, -69.000000)" fill="#000" fill-rule="nonzero">
            <g id="POP" transform="translate(1381.000000, 52.000000)">
                <path d="M38.730835,27.1566162 C38.2005615,26.6906738 37.5574951,26.2880859 36.8193359,25.960083 C36.5037842,25.8199463 36.1345215,25.9620361 35.9943848,26.2774658 C35.8542481,26.5928955 35.9963379,26.9621582 36.3117676,27.102417 C36.9342041,27.3790283 37.4705811,27.7131348 37.9057617,28.0955811 C38.4422608,28.5670166 38.75,29.2496338 38.75,29.96875 L38.75,31.125 C38.75,31.4696045 38.4696045,31.75 38.125,31.75 L25.875,31.75 C25.5303955,31.75 25.25,31.4696045 25.25,31.125 L25.25,29.96875 C25.25,29.2496338 25.5577393,28.5670166 26.0942383,28.0955811 C26.725708,27.5406494 28.5655518,26.25 32,26.25 C34.5501709,26.25 36.625,24.1751709 36.625,21.625 C36.625,19.0748291 34.5501709,17 32,17 C29.4498291,17 27.375,19.0748291 27.375,21.625 C27.375,23.1158447 28.0842285,24.4439697 29.1828613,25.2902832 C27.1726074,25.7321777 25.9221191,26.5827637 25.269165,27.1566162 C24.4626465,27.8652344 24,28.8901367 24,29.96875 L24,31.125 C24,32.1589356 24.8410644,33 25.875,33 L38.125,33 C39.1589356,33 40,32.1589356 40,31.125 L40,29.96875 C40,28.8901367 39.5373535,27.8652344 38.730835,27.1566162 Z M28.625,21.625 C28.625,19.7640381 30.1390381,18.25 32,18.25 C33.8609619,18.25 35.375,19.7640381 35.375,21.625 C35.375,23.4859619 33.8609619,25 32,25 C30.1390381,25 28.625,23.4859619 28.625,21.625 Z" id="myprofile"></path>
            </g>
        </g>
    </g>
</svg>