<?xml version="1.0" encoding="UTF-8"?>
<svg width="25px" height="26px" viewBox="0 0 25 26" version="1.1" xmlns="http://www.w3.org/2000/svg" xmlns:xlink="http://www.w3.org/1999/xlink">
    <!-- Generator: sketchtool 63.1 (101010) - https://sketch.com -->
    <title>64337C25-4EA7-4B27-9B1A-CA8F1CE7480D</title>
    <desc>Created with sketchtool.</desc>
    <g id="02.-WEB.DASHBOARD" stroke="none" stroke-width="1" fill="none" fill-rule="evenodd">
        <g id="GWA-WEB_DASHBOARD" transform="translate(-1382.000000, -35.000000)" fill="#fff" fill-rule="nonzero">
            <g id="TOP-BAR">
                <g id="bell" transform="translate(1382.000000, 28.000000)">
                    <path d="M20.8534082,19.2489648 C20.8534082,21.6374609 21.8850391,23.8992773 23.6882031,25.4719922 C23.7212207,25.4940039 23.7531152,25.5173633 23.7825391,25.5431933 C24.259834,25.9504102 24.5334082,26.5451758 24.5334082,27.1734082 C24.5334082,28.3570996 23.5705078,29.32 22.3865918,29.32 L16.773956,29.3209901 C16.3460814,31.4178068 14.487016,33 12.2665918,33 C10.0463643,33 8.18715106,31.4178068 7.75923667,29.3209901 L2.14659178,29.32 C0.962900405,29.32 -1.14042109e-12,28.3570996 -1.14042109e-12,27.1734082 C-1.14042109e-12,26.5451758 0.27357419,25.9504102 0.75064456,25.5418457 C0.78141603,25.5148926 0.814433565,25.4904102 0.848798842,25.4681738 C2.64949219,23.8968067 3.68,21.6361133 3.68,19.2489648 L3.68,15.8265918 C3.68,11.1618344 7.41985219,7.35409918 12.0572042,7.24251673 C12.1282385,7.24043532 12.1984933,7.24 12.2668164,7.24 L12.2668164,7.24 C12.3349149,7.24 12.4051697,7.24043532 12.4760116,7.24240437 C17.113656,7.35420092 20.8534082,11.1618967 20.8534082,15.8265918 L20.8534082,15.8265918 L20.8534082,19.2489648 Z M14.8686761,29.3207211 L9.66450748,29.3207211 C10.0445533,30.3914983 11.0679829,31.16 12.2665918,31.16 C13.4652007,31.16 14.4886302,30.3914983 14.8686761,29.3207211 Z M12.2665918,9.08 L12.034,9.084 L11.9638184,9.09100584 C11.8911365,9.10335181 11.818641,9.10647856 11.7475947,9.1012266 C8.26986989,9.36571909 5.52,12.2808558 5.52,15.8265918 L5.52,19.2489648 C5.52,22.2126855 4.22085937,25.0169336 1.95904294,26.9413867 C1.940625,26.9562109 1.92467772,26.9696875 1.90491209,26.9831641 C1.87189456,27.0249414 1.84,27.0887304 1.84,27.1734082 C1.84,27.3400683 1.97993165,27.48 2.14659178,27.48 L22.3865918,27.48 C22.5534766,27.48 22.6934082,27.3400683 22.6934082,27.1734082 C22.6934082,27.0873828 22.6615137,27.0249414 22.6271484,26.9831641 C22.6087304,26.9696875 22.5927832,26.9562109 22.5743652,26.9413867 C20.3680607,25.0639696 19.0792289,22.3529716 19.0158605,19.4720299 C19.0146417,19.4000621 19.0134082,19.3257001 19.0134082,19.2489648 L19.0134082,19.2489648 L19.0134082,15.8265918 C19.0134082,12.2808558 16.2635383,9.36571909 12.7858915,9.09977479 C12.7147673,9.10647856 12.6422717,9.10335181 12.5695898,9.09100584 L12.497,9.084 L12.297985,9.07986268 C12.2874144,9.07994378 12.2769418,9.08 12.2665918,9.08 Z" id="Combined-Shape"></path>
                </g>
            </g>
        </g>
    </g>
</svg>