<?xml version="1.0" encoding="UTF-8"?>
<svg width="15px" height="15px" viewBox="0 0 15 15" version="1.1" xmlns="http://www.w3.org/2000/svg" xmlns:xlink="http://www.w3.org/1999/xlink">
    <!-- Generator: sketchtool 63.1 (101010) - https://sketch.com -->
    <title>EEFFB56E-3AE4-42BF-A6C3-D3E8281F4C8E</title>
    <desc>Created with sketchtool.</desc>
    <g id="02.-WEB.DASHBOARD" stroke="none" stroke-width="1" fill="none" fill-rule="evenodd">
        <g id="GWA-WEB_DASHBOARD-POPUP" transform="translate(-1405.000000, -134.000000)" fill="#000" fill-rule="nonzero">
            <g id="POP" transform="translate(1381.000000, 52.000000)">
                <path d="M34.5766359,93.484375 L34.5766359,94.65625 C34.5766359,95.9486313 33.525221,97 32.232783,97 L26.3438528,97 C25.0514148,97 24,95.9486313 24,94.65625 L24,84.34375 C24,83.0513687 25.0514148,82 26.3438528,82 L32.232783,82 C33.525221,82 34.5766359,83.0513687 34.5766359,84.34375 L34.5766359,85.515625 C34.5766359,85.8392639 34.3143258,86.1015625 33.9906727,86.1015625 C33.6670195,86.1015625 33.4047095,85.8392639 33.4047095,85.515625 L33.4047095,84.34375 C33.4047095,83.6976166 32.8789448,83.171875 32.232783,83.171875 L26.3438528,83.171875 C25.697691,83.171875 25.1719264,83.6976166 25.1719264,84.34375 L25.1719264,94.65625 C25.1719264,95.3023834 25.697691,95.828125 26.3438528,95.828125 L32.232783,95.828125 C32.8789448,95.828125 33.4047095,95.3023834 33.4047095,94.65625 L33.4047095,93.484375 C33.4047095,93.1607361 33.6670195,92.8984375 33.9906727,92.8984375 C34.3143258,92.8984375 34.5766359,93.1607361 34.5766359,93.484375 Z M38.5716003,88.4934921 L37.2594775,87.181427 C37.0305857,86.9525452 36.659552,86.9525452 36.4307745,87.181427 C36.2018826,87.4101944 36.2018826,87.7812118 36.4307745,88.0099792 L37.3640812,88.9433594 L30.3284026,88.9433594 C30.0047495,88.9433594 29.7424394,89.205658 29.7424394,89.5292969 C29.7424394,89.8529358 30.0047495,90.1152344 30.3284026,90.1152344 L37.3640812,90.1152344 L36.4307745,91.0486145 C36.2018826,91.2773819 36.2018826,91.6483993 36.4307745,91.8771667 C36.5452205,91.9916077 36.6951446,92.0488281 36.8450688,92.0488281 C36.9951074,92.0488281 37.1450316,91.9916077 37.2594775,91.8771667 L38.5716003,90.5651016 C39.1427999,89.993927 39.1427999,89.0646667 38.5716003,88.4934921 Z" id="Signout"></path>
            </g>
        </g>
    </g>
</svg>