{
    "asset" : {
        "generator" : "Khronos glTF Blender I/O v1.8.19",
        "version" : "2.0"
    },
    "scene" : 0,
    "scenes" : [
        {
            "name" : "Scene",
            "nodes" : [
                0,
                1,
                2,
                3,
                4,
                5,
                6
            ]
        }
    ],
    "nodes" : [
        {
            "mesh" : 0,
            "name" : "pCube1",
            "rotation" : [
                0.7071068286895752,
                0,
                0,
                0.7071067094802856
            ],
            "scale" : [
                0.010000000707805157,
                0.010000000707805157,
                0.010000000707805157
            ],
            "translation" : [
                0.005053665954619646,
                0.028597388416528702,
                -0.000546101073268801
            ]
        },
        {
            "mesh" : 1,
            "name" : "pCube2",
            "rotation" : [
                0.7071068286895752,
                0,
                0,
                0.7071067094802856
            ],
            "scale" : [
                0.013567838817834854,
                0.013567838817834854,
                0.013567838817834854
            ],
            "translation" : [
                -0.014150622300803661,
                0.05016938969492912,
                -0.0011302410857751966
            ]
        },
        {
            "mesh" : 2,
            "name" : "pPipe1",
            "rotation" : [
                0.5,
                -0.5,
                -0.5,
                0.4999999701976776
            ],
            "scale" : [
                0.0014276670990511775,
                0.0014276670990511775,
                0.0011244422057643533
            ],
            "translation" : [
                0.07789593935012817,
                0.03965737298130989,
                0.02394963428378105
            ]
        },
        {
            "mesh" : 3,
            "name" : "pCylinder1",
            "rotation" : [
                0.7071068286895752,
                0,
                0,
                0.7071067094802856
            ],
            "scale" : [
                0.011759789660573006,
                0.011759789660573006,
                0.011759789660573006
            ],
            "translation" : [
                0.08032866567373276,
                0.03966955840587616,
                0.023973319679498672
            ]
        },
        {
            "mesh" : 4,
            "name" : "pCylinder2",
            "rotation" : [
                0.7071068286895752,
                0,
                0,
                0.7071067094802856
            ],
            "scale" : [
                0.013037868775427341,
                0.013037868775427341,
                0.013037868775427341
            ],
            "translation" : [
                0.08558283001184464,
                0.03966955840587616,
                0.023973319679498672
            ]
        },
        {
            "mesh" : 5,
            "name" : "pCylinder3",
            "rotation" : [
                0.7071068286895752,
                0,
                0,
                0.7071067094802856
            ],
            "scale" : [
                0.07401413470506668,
                0.011573809199035168,
                0.011573809199035168
            ],
            "translation" : [
                0.10091007500886917,
                0.03966955840587616,
                0.023973319679498672
            ]
        },
        {
            "mesh" : 6,
            "name" : "pCube3",
            "rotation" : [
                0.7071068286895752,
                0,
                0,
                0.7071067094802856
            ],
            "scale" : [
                0.010000000707805157,
                0.010000000707805157,
                0.010000000707805157
            ],
            "translation" : [
                0.005323451478034258,
                0.005882979836314917,
                0.00045305967796593904
            ]
        }
    ],
    "materials" : [
        {
            "doubleSided" : true,
            "name" : "phong1",
            "pbrMetallicRoughness" : {
                "baseColorFactor" : [
                    0.05098039284348488,
                    0.13333334028720856,
                    0.3137255012989044,
                    1
                ],
                "metallicFactor" : 0.5,
                "roughnessFactor" : 0.5527864098548889
            }
        },
        {
            "alphaMode" : "BLEND",
            "doubleSided" : true,
            "name" : "lambert3",
            "pbrMetallicRoughness" : {
                "baseColorTexture" : {
                    "index" : 0
                },
                "roughnessFactor" : 0.5527864098548889
            }
        },
        {
            "doubleSided" : true,
            "name" : "phong5",
            "pbrMetallicRoughness" : {
                "baseColorFactor" : [
                    0.8117647171020508,
                    0.843137264251709,
                    0.8627451062202454,
                    1
                ],
                "metallicFactor" : 0.5,
                "roughnessFactor" : 0.5527864098548889
            }
        },
        {
            "doubleSided" : true,
            "name" : "phong4",
            "pbrMetallicRoughness" : {
                "baseColorFactor" : [
                    0.8117647171020508,
                    0.843137264251709,
                    0.8627451062202454,
                    1
                ],
                "metallicFactor" : 0.5,
                "roughnessFactor" : 0.5527864098548889
            }
        },
        {
            "doubleSided" : true,
            "name" : "phong3",
            "pbrMetallicRoughness" : {
                "baseColorFactor" : [
                    0.3529411852359772,
                    0.3529411852359772,
                    0.3529411852359772,
                    1
                ],
                "metallicFactor" : 0.5,
                "roughnessFactor" : 0.5527864098548889
            }
        },
        {
            "doubleSided" : true,
            "name" : "phong2",
            "pbrMetallicRoughness" : {
                "baseColorFactor" : [
                    0.3529411852359772,
                    0.3529411852359772,
                    0.3529411852359772,
                    1
                ],
                "metallicFactor" : 0.5,
                "roughnessFactor" : 0.5527864098548889
            }
        },
        {
            "doubleSided" : true,
            "name" : "phong6",
            "pbrMetallicRoughness" : {
                "baseColorFactor" : [
                    0.05098039284348488,
                    0.13333334028720856,
                    0.3137255012989044,
                    1
                ],
                "metallicFactor" : 0.5,
                "roughnessFactor" : 0.5527864098548889
            }
        }
    ],
    "meshes" : [
        {
            "name" : "Mesh",
            "primitives" : [
                {
                    "attributes" : {
                        "POSITION" : 0,
                        "NORMAL" : 1,
                        "TEXCOORD_0" : 2
                    },
                    "indices" : 3,
                    "material" : 0
                }
            ]
        },
        {
            "name" : "Mesh.001",
            "primitives" : [
                {
                    "attributes" : {
                        "POSITION" : 4,
                        "NORMAL" : 5,
                        "TEXCOORD_0" : 6
                    },
                    "indices" : 7,
                    "material" : 1
                }
            ]
        },
        {
            "name" : "Mesh.002",
            "primitives" : [
                {
                    "attributes" : {
                        "POSITION" : 8,
                        "NORMAL" : 9,
                        "TEXCOORD_0" : 10
                    },
                    "indices" : 11,
                    "material" : 2
                }
            ]
        },
        {
            "name" : "Mesh.003",
            "primitives" : [
                {
                    "attributes" : {
                        "POSITION" : 12,
                        "NORMAL" : 13,
                        "TEXCOORD_0" : 14
                    },
                    "indices" : 15,
                    "material" : 3
                }
            ]
        },
        {
            "name" : "Mesh.004",
            "primitives" : [
                {
                    "attributes" : {
                        "POSITION" : 16,
                        "NORMAL" : 17,
                        "TEXCOORD_0" : 18
                    },
                    "indices" : 15,
                    "material" : 4
                }
            ]
        },
        {
            "name" : "Mesh.005",
            "primitives" : [
                {
                    "attributes" : {
                        "POSITION" : 19,
                        "NORMAL" : 20,
                        "TEXCOORD_0" : 21
                    },
                    "indices" : 15,
                    "material" : 5
                }
            ]
        },
        {
            "name" : "Mesh.006",
            "primitives" : [
                {
                    "attributes" : {
                        "POSITION" : 22,
                        "NORMAL" : 23,
                        "TEXCOORD_0" : 24
                    },
                    "indices" : 25,
                    "material" : 6
                }
            ]
        }
    ],
    "textures" : [
        {
            "sampler" : 0,
            "source" : 0
        }
    ],
    "images" : [
        {
            "bufferView" : 8,
            "mimeType" : "image/png",
            "name" : "Screenshot_1"
        }
    ],
    "accessors" : [
        {
            "bufferView" : 0,
            "componentType" : 5126,
            "count" : 524,
            "max" : [
                7.195350646972656,
                4.688374996185303,
                2.1900041103363037
            ],
            "min" : [
                -7.195350646972656,
                -4.688374996185303,
                -2.1900041103363037
            ],
            "type" : "VEC3"
        },
        {
            "bufferView" : 1,
            "componentType" : 5126,
            "count" : 524,
            "type" : "VEC3"
        },
        {
            "bufferView" : 2,
            "componentType" : 5126,
            "count" : 524,
            "type" : "VEC2"
        },
        {
            "bufferView" : 3,
            "componentType" : 5123,
            "count" : 2436,
            "type" : "SCALAR"
        },
        {
            "bufferView" : 4,
            "componentType" : 5126,
            "count" : 24,
            "max" : [
                3.30875825881958,
                2.8731038570404053,
                0.06121912971138954
            ],
            "min" : [
                -3.30875825881958,
                -2.8731038570404053,
                -0.06121912971138954
            ],
            "type" : "VEC3"
        },
        {
            "bufferView" : 5,
            "componentType" : 5126,
            "count" : 24,
            "type" : "VEC3"
        },
        {
            "bufferView" : 6,
            "componentType" : 5126,
            "count" : 24,
            "type" : "VEC2"
        },
        {
            "bufferView" : 7,
            "componentType" : 5123,
            "count" : 36,
            "type" : "SCALAR"
        },
        {
            "bufferView" : 9,
            "componentType" : 5126,
            "count" : 112,
            "max" : [
                2.404970169067383,
                2.3684329986572266,
                0.8798450231552124
            ],
            "min" : [
                -2.25993275642395,
                -2.3684332370758057,
                -0.8798450231552124
            ],
            "type" : "VEC3"
        },
        {
            "bufferView" : 10,
            "componentType" : 5126,
            "count" : 112,
            "type" : "VEC3"
        },
        {
            "bufferView" : 11,
            "componentType" : 5126,
            "count" : 112,
            "type" : "VEC2"
        },
        {
            "bufferView" : 12,
            "componentType" : 5123,
            "count" : 216,
            "type" : "SCALAR"
        },
        {
            "bufferView" : 13,
            "componentType" : 5126,
            "count" : 84,
            "max" : [
                0.2226009964942932,
                0.23936079442501068,
                0.2393607646226883
            ],
            "min" : [
                -0.2226009964942932,
                -0.23936088383197784,
                -0.23936082422733307
            ],
            "type" : "VEC3"
        },
        {
            "bufferView" : 14,
            "componentType" : 5126,
            "count" : 84,
            "type" : "VEC3"
        },
        {
            "bufferView" : 15,
            "componentType" : 5126,
            "count" : 84,
            "type" : "VEC2"
        },
        {
            "bufferView" : 16,
            "componentType" : 5123,
            "count" : 240,
            "type" : "SCALAR"
        },
        {
            "bufferView" : 17,
            "componentType" : 5126,
            "count" : 84,
            "max" : [
                0.2226009964942932,
                0.23936079442501068,
                0.2393607646226883
            ],
            "min" : [
                -0.2226009964942932,
                -0.23936088383197784,
                -0.23936082422733307
            ],
            "type" : "VEC3"
        },
        {
            "bufferView" : 18,
            "componentType" : 5126,
            "count" : 84,
            "type" : "VEC3"
        },
        {
            "bufferView" : 19,
            "componentType" : 5126,
            "count" : 84,
            "type" : "VEC2"
        },
        {
            "bufferView" : 20,
            "componentType" : 5126,
            "count" : 84,
            "max" : [
                0.12203188240528107,
                0.23936079442501068,
                0.2393607646226883
            ],
            "min" : [
                -0.2226009964942932,
                -0.23936088383197784,
                -0.23936082422733307
            ],
            "type" : "VEC3"
        },
        {
            "bufferView" : 21,
            "componentType" : 5126,
            "count" : 84,
            "type" : "VEC3"
        },
        {
            "bufferView" : 22,
            "componentType" : 5126,
            "count" : 84,
            "type" : "VEC2"
        },
        {
            "bufferView" : 23,
            "componentType" : 5126,
            "count" : 288,
            "max" : [
                8.506195068359375,
                5.855795860290527,
                0.08143679797649384
            ],
            "min" : [
                -8.506195068359375,
                -5.855795860290527,
                -0.08143679797649384
            ],
            "type" : "VEC3"
        },
        {
            "bufferView" : 24,
            "componentType" : 5126,
            "count" : 288,
            "type" : "VEC3"
        },
        {
            "bufferView" : 25,
            "componentType" : 5126,
            "count" : 288,
            "type" : "VEC2"
        },
        {
            "bufferView" : 26,
            "componentType" : 5123,
            "count" : 1284,
            "type" : "SCALAR"
        }
    ],
    "bufferViews" : [
        {
            "buffer" : 0,
            "byteLength" : 6288,
            "byteOffset" : 0
        },
        {
            "buffer" : 0,
            "byteLength" : 6288,
            "byteOffset" : 6288
        },
        {
            "buffer" : 0,
            "byteLength" : 4192,
            "byteOffset" : 12576
        },
        {
            "buffer" : 0,
            "byteLength" : 4872,
            "byteOffset" : 16768
        },
        {
            "buffer" : 0,
            "byteLength" : 288,
            "byteOffset" : 21640
        },
        {
            "buffer" : 0,
            "byteLength" : 288,
            "byteOffset" : 21928
        },
        {
            "buffer" : 0,
            "byteLength" : 192,
            "byteOffset" : 22216
        },
        {
            "buffer" : 0,
            "byteLength" : 72,
            "byteOffset" : 22408
        },
        {
            "buffer" : 0,
            "byteLength" : 314242,
            "byteOffset" : 22480
        },
        {
            "buffer" : 0,
            "byteLength" : 1344,
            "byteOffset" : 336724
        },
        {
            "buffer" : 0,
            "byteLength" : 1344,
            "byteOffset" : 338068
        },
        {
            "buffer" : 0,
            "byteLength" : 896,
            "byteOffset" : 339412
        },
        {
            "buffer" : 0,
            "byteLength" : 432,
            "byteOffset" : 340308
        },
        {
            "buffer" : 0,
            "byteLength" : 1008,
            "byteOffset" : 340740
        },
        {
            "buffer" : 0,
            "byteLength" : 1008,
            "byteOffset" : 341748
        },
        {
            "buffer" : 0,
            "byteLength" : 672,
            "byteOffset" : 342756
        },
        {
            "buffer" : 0,
            "byteLength" : 480,
            "byteOffset" : 343428
        },
        {
            "buffer" : 0,
            "byteLength" : 1008,
            "byteOffset" : 343908
        },
        {
            "buffer" : 0,
            "byteLength" : 1008,
            "byteOffset" : 344916
        },
        {
            "buffer" : 0,
            "byteLength" : 672,
            "byteOffset" : 345924
        },
        {
            "buffer" : 0,
            "byteLength" : 1008,
            "byteOffset" : 346596
        },
        {
            "buffer" : 0,
            "byteLength" : 1008,
            "byteOffset" : 347604
        },
        {
            "buffer" : 0,
            "byteLength" : 672,
            "byteOffset" : 348612
        },
        {
            "buffer" : 0,
            "byteLength" : 3456,
            "byteOffset" : 349284
        },
        {
            "buffer" : 0,
            "byteLength" : 3456,
            "byteOffset" : 352740
        },
        {
            "buffer" : 0,
            "byteLength" : 2304,
            "byteOffset" : 356196
        },
        {
            "buffer" : 0,
            "byteLength" : 2568,
            "byteOffset" : 358500
        }
    ],
    "samplers" : [
        {
            "magFilter" : 9729,
            "minFilter" : 9987
        }
    ],
    "buffers" : [
        {
            "byteLength" : 361068,
            "uri" : "data:application/octet-stream;base64,"
        }
    ]
}
