<svg xmlns="http://www.w3.org/2000/svg" viewBox="0 0 855.12 985.96"><defs><style>.cls-1{fill:#f75500;}.cls-2{fill:#ced6db;}</style></defs><title>Asset 1</title><g id="Layer_2" data-name="Layer 2"><g id="Layer_1-2" data-name="Layer 1"><path class="cls-1" d="M740,208.05c-14.62-24.6-31-52.13-34.4-66.7l32.15-.67V0H579.49L567.57,15.05c-4,5.08-39.27,51.86-39.27,129,0,55.57,13.68,102.93,30.78,147.27a258.91,258.91,0,0,0-263,0c17.1-44.34,30.77-91.7,30.77-147.27,0-77.13-35.24-123.91-39.27-129L275.63,0H117.4V139.26l32.2,1.88c-3.32,14.52-19.76,42.19-34.45,66.92C69.3,285.25,0,401.9,0,580.26c0,42.8,7.49,88,21.67,130.85C38,760.31,62.23,804.65,93.82,842.92A374.89,374.89,0,0,0,227.54,945.54C285.9,972.36,353.2,986,427.56,986s141.66-13.6,200-40.42A374.89,374.89,0,0,0,761.31,842.92c31.58-38.27,55.86-82.61,72.15-131.81,14.17-42.81,21.66-88.05,21.66-130.85C855.12,401.9,785.83,285.25,740,208.05ZM427.71,761.48c-134.12,0-242.84-110.14-242.84-246s108.72-246,242.84-246,242.85,110.14,242.85,246S561.84,761.48,427.71,761.48Z"/><path d="M725.64,214.56c-20.06-33.77-37.38-62.93-37.38-80,0-6.15,2-7.91,4-9.19a19.82,19.82,0,0,1,7.34-2.56l21.49-.45V14.66H587.55l-6.92,8.73C579.18,25.23,545,69.26,545,142c0,73.19,25.31,132.6,49.78,190l3.8,8.93A240.74,240.74,0,0,1,669.08,511.6C669.08,645,561,753.11,427.56,753.11S186,645,186,511.6A240.75,240.75,0,0,1,256.59,341l3.8-8.93c24.47-57.45,49.77-116.86,49.77-190,0-72.78-34.21-116.81-35.67-118.65l-6.91-8.73H134.06V121.54l21.67,1.27a22,22,0,0,1,6.53,2.18c2.42,1.36,4.6,3.11,4.6,9.57,0,17.07-17.32,46.23-37.38,80C84.55,290.18,16.66,404.47,16.66,578.26c0,41,7.2,84.47,20.82,125.61,15.65,47.23,38.92,89.77,69.19,126.44A358.3,358.3,0,0,0,234.49,928.4c56.17,25.81,121.13,38.9,193.07,38.9s136.9-13.09,193.07-38.9a358.33,358.33,0,0,0,127.83-98.09c30.26-36.67,53.54-79.21,69.18-126.44,13.62-41.14,20.82-84.57,20.82-125.61C838.46,404.47,770.57,290.18,725.64,214.56Z"/><path class="cls-2" d="M149.31,413.37a23.88,23.88,0,1,0-23.88-23.88,23.88,23.88,0,0,0,23.88,23.88"/><path class="cls-2" d="M152.27,524.09A23.89,23.89,0,1,0,128.38,548a23.9,23.9,0,0,0,23.89-23.88"/><path class="cls-2" d="M154.9,634.8a23.89,23.89,0,1,0,23.88,23.88A23.88,23.88,0,0,0,154.9,634.8"/><path class="cls-2" d="M239.51,739.48a23.88,23.88,0,1,0,23.88,23.88,23.88,23.88,0,0,0-23.88-23.88"/><path class="cls-2" d="M665.24,133.56c0-32.8,32.8-34.73,32.8-34.73V36.68H598.68S568,75.43,568,141c0,138.12,97.07,225.59,97.07,368.32s-103.59,241.7-237.49,241.7-237.48-99-237.48-241.7S287.14,279.16,287.14,141c0-65.61-30.69-104.36-30.69-104.36H157.08V98.83s32.8,1.93,32.8,34.73c0,68.48-150.2,189.34-150.2,443.7,0,145,96.68,366,387.88,366s387.88-221,387.88-366c0-254.36-150.2-375.22-150.2-443.7m4.41-56,6.9-26.08V90s-26.27,1.91-26.27,42.77c0,34.53,28.2,81.34,28.2,81.34S635,170.68,635,124.35s34.62-46.81,34.62-46.81m-464.8,55.25c0-40.86-26.28-42.77-26.28-42.77V51.46l6.91,26.08s34.62.48,34.62,46.81-43.45,89.78-43.45,89.78,28.2-46.81,28.2-81.34m33,703.65c-65-33.88-165.89-116-165.89-299.46,0-118.85,48.48-208.34,86.89-281.4a39.21,39.21,0,0,1,70.82,33.55c-28.33,66.64-61.8,132.58-61.8,228.65,0,127.82,74.58,195.47,122.74,225.84a53.44,53.44,0,0,1,21,65.83l-.05.15a53.29,53.29,0,0,1-73.69,26.84M542.1,907c-21.48,6.09-60.64,14.39-114.54,14.39S334.51,913.11,313,907a21.09,21.09,0,0,1-15.31-20.26,20.65,20.65,0,0,1,.52-4.65,21.06,21.06,0,0,1,24.79-16c23.7,4.88,64.86,11.95,104.53,11.95S508.4,871,532.09,866.1a21.08,21.08,0,0,1,10,40.92m75.23-70.58a53.29,53.29,0,0,1-73.69-26.84l-.06-.15a53.45,53.45,0,0,1,21-65.83c48.16-30.37,122.75-98,122.75-225.84,0-96.07-33.48-162-61.8-228.65a39.22,39.22,0,0,1,70.82-33.55c38.41,73.06,86.89,162.55,86.89,281.4,0,183.43-100.93,265.58-165.89,299.46"/><path class="cls-2" d="M705.81,413.37a23.88,23.88,0,1,0-23.88-23.88,23.89,23.89,0,0,0,23.88,23.88"/><path class="cls-2" d="M726.74,500.2a23.89,23.89,0,1,0,23.89,23.89,23.89,23.89,0,0,0-23.89-23.89"/><path class="cls-2" d="M700.23,634.8a23.89,23.89,0,1,0,23.88,23.88,23.89,23.89,0,0,0-23.88-23.88"/><path class="cls-2" d="M615.62,739.48a23.88,23.88,0,1,0,23.88,23.88,23.89,23.89,0,0,0-23.88-23.88"/></g></g></svg>