<svg xmlns="http://www.w3.org/2000/svg" viewBox="0 0 1149.73 377.6"><defs><style>.cls-1,.cls-4{fill:#f75500;}.cls-2{fill:#fff;}.cls-3,.cls-4{stroke:#000;stroke-miterlimit:10;}.cls-3{stroke-width:2px;}.cls-4{stroke-width:4.5px;}</style></defs><title>Asset 1</title><g id="Layer_2" data-name="Layer 2"><g id="Layer_1-2" data-name="Layer 1"><path class="cls-1" d="M579.07,377.6c-52.12,0-97.7-1.81-137.91-3.42l-13.08-.51c-127.46-5-245.9-28.72-279.16-35.87l-.83-.18-44.21-9a5,5,0,0,1-1.51-9.22l39-22.61,47.4-27.45,10.95-54.64,21.86,3.71.28.07c5.71,1.1,80.87,27.64,212.91,34.64,45.58,2.41,93.31,3.64,141.88,3.64,142.29,0,291.07-22.2,437.35-42.55l21.91-3,15.53,111.65a20,20,0,0,1-17,22.56l-2.11.29C880,366.86,727.52,377.6,579.07,377.6Z"/><path d="M579.07,364.33c-51.84,0-97.29-1.81-137.39-3.41l-13.07-.52c-126.42-4.95-243.91-28.48-276.9-35.58l-1-.21L127.87,320,148,308.28l52.58-30.44,9.6-47.89,8.75,1.49.13,0c5,1,83.81,27.89,218.33,35,45.83,2.43,93.8,3.66,142.58,3.66,142.9,0,289-22.35,435.84-42.78l8.76-1.22,14.63,105.17-8.77,1.22C878.79,353.63,726.92,364.33,579.07,364.33Z"/><path class="cls-2" d="M579.07,355.48c-57.49,0-107.85-2.26-150.11-3.92C287.55,346,155.89,316.63,152.47,315.94l56-32.45,8.69-43.38h0c1.94.38,124.53,29.46,261.58,36.72,127.31,6.75,288.72-6,538.24-40.71l12.2,87.64C854.27,348.11,700.78,355.48,579.07,355.48Z"/><path class="cls-3" d="M351.55,324.22,347.46,299l3.37.3L352.66,312c.46,3.14.85,6.27,1.08,8.69h.07c.62-2.41,1.65-5.27,2.77-8.38L361,300.19l3.33.29,1.9,12.79c.44,3,.84,6,1,8.6h.08c.75-2.66,1.69-5.35,2.73-8.35l4.35-12.16,3.26.28-9.17,24.06-3.33-.29-2-13.13a74.57,74.57,0,0,1-.9-8.19h-.07a77.71,77.71,0,0,1-2.62,7.89l-4.64,12.54Z"/><path class="cls-3" d="M383.14,318.53c-.24,4.37,2.41,6.37,5.64,6.6a11.53,11.53,0,0,0,5-.56l.39,2.35a14.35,14.35,0,0,1-6,.67c-5.46-.39-8.46-4.22-8.07-9.57s3.84-9.34,9-9c5.79.42,7,5.62,6.72,8.88a12.93,12.93,0,0,1-.22,1.5Zm9.62-1.62c.19-2.05-.46-5.3-4.09-5.56-3.26-.24-4.91,2.66-5.32,4.88Z"/><path class="cls-3" d="M415.45,304.5a30.79,30.79,0,0,1,5.86-.21c3.2.16,5.22.82,6.7,2.14a5.18,5.18,0,0,1,1.83,4.47,5.87,5.87,0,0,1-4.46,5.22v.08a6.37,6.37,0,0,1,4.78,6.46,6.65,6.65,0,0,1-2.35,4.84c-1.8,1.49-4.63,2.08-8.66,1.88a38.71,38.71,0,0,1-4.94-.55Zm2.07,22.14a16.34,16.34,0,0,0,2.67.29c3.3.17,6.41-.88,6.6-4.48.17-3.38-2.66-4.92-6.14-5.1l-2.65-.14Zm.61-11.85,2.9.15c3.37.17,5.44-1.49,5.57-3.87.15-2.9-2-4.15-5.23-4.31a13.65,13.65,0,0,0-2.83.07Z"/><path class="cls-3" d="M438,317.8c.08-2.1.11-3.9.07-5.55l2.82.11,0,3.49h.15a5.33,5.33,0,0,1,5.06-3.7,3.16,3.16,0,0,1,.92.15l-.12,3a5.52,5.52,0,0,0-1.1-.15c-2.27-.09-4,1.58-4.49,4a9.09,9.09,0,0,0-.2,1.5l-.36,9.47-3.2-.12Z"/><path class="cls-3" d="M454.82,322.32c0,4.37,2.71,6.24,5.94,6.32a11.79,11.79,0,0,0,4.95-.79l.49,2.32a14.31,14.31,0,0,1-5.94,1c-5.47-.14-8.65-3.83-8.51-9.19s3.4-9.5,8.57-9.37c5.81.15,7.22,5.29,7.14,8.56a14,14,0,0,1-.15,1.5Zm9.54-2.08c.08-2.05-.72-5.27-4.35-5.36-3.27-.08-4.78,2.89-5.09,5.12Z"/><path class="cls-3" d="M476.65,322.77c0,4.37,2.81,6.19,6,6.22a11.75,11.75,0,0,0,4.93-.87l.53,2.31a14.18,14.18,0,0,1-5.92,1.05c-5.47,0-8.71-3.67-8.66-9s3.24-9.56,8.42-9.52c5.8.05,7.3,5.17,7.27,8.44a13.3,13.3,0,0,1-.12,1.51Zm9.49-2.23c.06-2.06-.79-5.26-4.43-5.3-3.27,0-4.73,3-5,5.21Z"/><path class="cls-3" d="M512.33,305.18l-.11,21.5c0,1.58,0,3.38.13,4.59h-2.91l-.13-3.09h-.07a6.59,6.59,0,0,1-6.08,3.46c-4.3,0-7.59-3.68-7.56-9.08,0-5.91,3.68-9.53,8-9.51a5.93,5.93,0,0,1,5.35,2.75H509l0-10.62ZM509,320.71a5.66,5.66,0,0,0-.14-1.36,4.76,4.76,0,0,0-4.65-3.77c-3.34,0-5.34,2.91-5.36,6.84,0,3.6,1.73,6.59,5.22,6.6a4.85,4.85,0,0,0,4.76-3.83,5.59,5.59,0,0,0,.15-1.39Z"/><path class="cls-3" d="M532.75,306.91a47.7,47.7,0,0,1,6.8-.52c4.59,0,7.86,1.07,10,3.09s3.5,4.88,3.5,8.89-1.25,7.34-3.56,9.62-6.13,3.57-11,3.57a52.51,52.51,0,0,1-5.8-.29ZM536,328.8a19.84,19.84,0,0,0,3.24.19c6.83,0,10.54-3.83,10.53-10.51,0-5.84-3.27-9.55-10-9.55a18.34,18.34,0,0,0-3.74.33Z"/><path class="cls-3" d="M576.94,322.14c0,6.57-4.48,9.48-8.78,9.51-4.81,0-8.55-3.47-8.59-9.09-.05-5.95,3.82-9.47,8.74-9.51C573.42,313,576.9,316.7,576.94,322.14Zm-14.1.29c0,3.89,2.29,6.82,5.45,6.79s5.38-2.94,5.35-7c0-3-1.56-6.82-5.38-6.79S562.81,319.05,562.84,322.43Z"/><path class="cls-3" d="M584.46,318.14c0-1.84-.09-3.34-.23-4.81l2.83-.05.2,2.86h.11a6.14,6.14,0,0,1,5.53-3.36,5.24,5.24,0,0,1,5.09,3.47h.07a7.34,7.34,0,0,1,2-2.35,6.08,6.08,0,0,1,3.9-1.32c2.36,0,5.87,1.45,6,7.62l.18,10.46-3.16.06-.17-10.07c-.06-3.41-1.35-5.45-4-5.4a4.18,4.18,0,0,0-3.77,3,5.28,5.28,0,0,0-.23,1.62l.19,11-3.16.05-.19-10.65c0-2.83-1.33-4.86-3.79-4.82a4.44,4.44,0,0,0-4,3.3,4.61,4.61,0,0,0-.23,1.59l.19,10.72-3.16.06Z"/><path class="cls-3" d="M628.77,330.13l-.32-2.23h-.11a6.62,6.62,0,0,1-5.36,2.8,5.07,5.07,0,0,1-5.59-4.94c-.12-4.3,3.63-6.76,10.5-6.92v-.37c0-1.47-.53-4.1-4.16-4a8.8,8.8,0,0,0-4.59,1.46l-.8-2.11a11,11,0,0,1,5.79-1.75c5.44-.16,6.87,3.51,7,7.08l.2,6.64a24.18,24.18,0,0,0,.42,4.26Zm-.74-9.06c-3.53,0-7.52.77-7.42,4.23a2.86,2.86,0,0,0,3.14,3,4.43,4.43,0,0,0,4.21-3.1,3.35,3.35,0,0,0,.16-1Z"/><path class="cls-3" d="M643,306.85a2,2,0,0,1-4,.15,2,2,0,0,1,2-2.09A1.9,1.9,0,0,1,643,306.85Zm-2.77,22.9L639.62,312l3.23-.12.64,17.77Z"/><path class="cls-3" d="M651.92,316.34c-.07-1.83-.17-3.34-.35-4.8l2.87-.12.3,2.93h.08a6.54,6.54,0,0,1,5.73-3.58c2.46-.11,6.34,1.2,6.6,7.29l.44,10.61-3.23.14-.43-10.24c-.12-2.87-1.28-5.21-4.33-5.08a4.58,4.58,0,0,0-4.19,3.49,4.7,4.7,0,0,0-.16,1.51l.45,10.68-3.23.14Z"/><path class="cls-3" d="M688,327.69,686.66,303l3.48-.19,8.6,12.08a70.18,70.18,0,0,1,4.88,7.8l.07,0c-.47-3.29-.71-6.29-.92-10.15l-.56-10.34,3-.16,1.34,24.72-3.23.18-8.53-12.13a77.89,77.89,0,0,1-5.07-8l-.11.05c.36,3.1.59,6.07.81,10.18l.57,10.56Z"/><path class="cls-3" d="M725.5,325.55l-.39-2.22H725a6.64,6.64,0,0,1-5.27,3,5.07,5.07,0,0,1-5.74-4.76c-.27-4.3,3.4-6.88,10.26-7.26l0-.37c-.09-1.47-.65-4.08-4.28-3.86a8.74,8.74,0,0,0-4.54,1.61l-.87-2.09a11.11,11.11,0,0,1,5.74-1.93c5.42-.34,7,3.29,7.19,6.84l.41,6.64a25.14,25.14,0,0,0,.55,4.24Zm-1-9c-3.52.14-7.48,1-7.27,4.46a2.87,2.87,0,0,0,3.24,2.89,4.43,4.43,0,0,0,4.11-3.23,3.38,3.38,0,0,0,.11-1Z"/><path class="cls-3" d="M736,311.89c-.13-1.83-.27-3.33-.48-4.79l2.82-.2.35,2.85h.11a6.14,6.14,0,0,1,5.34-3.65,5.26,5.26,0,0,1,5.27,3.2h.07a7.23,7.23,0,0,1,1.82-2.45,6.09,6.09,0,0,1,3.83-1.52c2.35-.17,5.94,1.13,6.37,7.28l.74,10.45-3.16.22-.7-10c-.24-3.41-1.63-5.37-4.23-5.19a4.19,4.19,0,0,0-3.61,3.2,5.22,5.22,0,0,0-.14,1.63l.77,11-3.15.22-.75-10.63c-.2-2.82-1.59-4.79-4-4.61a4.41,4.41,0,0,0-3.76,3.5,4.45,4.45,0,0,0-.15,1.6l.75,10.7-3.15.22Z"/><path class="cls-3" d="M772.27,313.94c.41,4.35,3.34,5.92,6.56,5.67a11.79,11.79,0,0,0,4.84-1.31l.73,2.27a14.44,14.44,0,0,1-5.81,1.56c-5.46.43-9-2.9-9.42-8.24s2.39-9.81,7.55-10.22c5.79-.46,7.73,4.51,8,7.77a12.8,12.8,0,0,1,0,1.51Zm9.26-3.06c-.12-2.05-1.25-5.17-4.88-4.88-3.26.25-4.45,3.37-4.53,5.63Z"/><path class="cls-3" d="M792.37,317.32a8.45,8.45,0,0,0,4.35.92c2.35-.2,3.34-1.47,3.22-2.93s-1.12-2.3-3.57-3c-3.28-.86-4.93-2.49-5.12-4.61-.24-2.86,1.87-5.4,5.67-5.72a8.79,8.79,0,0,1,4.45.72l-.6,2.41a7,7,0,0,0-3.71-.71c-1.91.16-2.87,1.35-2.76,2.67s1.24,2,3.62,2.71c3.18.91,4.88,2.32,5.11,4.95.26,3.11-2,5.52-6.18,5.88a10.15,10.15,0,0,1-5.08-.79Z"/><path class="cls-1" d="M1041.74,330.69a13.93,13.93,0,0,1-4.85-.86l-59.73-22.12-61.25-23.87c-6.27-2.44-9.52-8.94-7.53-15L978.64,55.36a19.46,19.46,0,0,1-2.82-3.75c-2.19-3.78-4-9.93-.88-18.26,1.52-9.48,9.83-18.72,23.7-18.72a39.1,39.1,0,0,1,10.18,1.45l.44.1a281,281,0,0,1,56,23.21c39.84,21.64,68.64,50,83.31,81.94a11.55,11.55,0,0,1-.41,10.88,12.83,12.83,0,0,1-9.34,6.12c-1.71.36-18.56,4.48-37,26.93-18.32,22.25-41.32,67-46.86,153.84a12.25,12.25,0,0,1-6.08,9.66A13.86,13.86,0,0,1,1041.74,330.69Z"/><path d="M1005.65,28.05h0c-17.33-4.9-17.77,8.18-17.77,8.18-5.2,11.56,5.43,13.69,6.53,13.87l-.7,1.36L921,272.46l61.24,23.87,59.51,22c11.4-178.56,94.71-192.17,94.71-192.17C1103.34,54,1005.65,28.05,1005.65,28.05Z"/><path class="cls-1" d="M108,330.69a13.86,13.86,0,0,1-7.09-1.93,12.25,12.25,0,0,1-6.08-9.66C89.28,232.26,66.28,187.51,48,165.26c-18.49-22.45-35.34-26.57-37-26.93a12.83,12.83,0,0,1-9.34-6.12,11.55,11.55,0,0,1-.41-10.88c14.67-32,43.47-60.3,83.31-81.94a281,281,0,0,1,56-23.21c.39-.1.79-.19,1.19-.26a54.23,54.23,0,0,1,9.17-.85c11,0,17.36,4.23,20.77,7.78a22.34,22.34,0,0,1,6.18,14.94c2,9-.88,14.9-3.72,18.33a20.23,20.23,0,0,1-2,2.1l69.31,210.61c2,6.07-1.26,12.57-7.53,15l-61.25,23.87-59.73,22.12A13.93,13.93,0,0,1,108,330.69Z"/><path d="M156,51.47s12.17.72,8.55-12.37c0,0,1.71-14.93-20.49-11,0,0-97.69,26-130.8,98.14,0,0,83.31,13.61,94.71,192.17l59.51-22,61.24-23.87Z"/><path class="cls-2" d="M114.09,307.71c-5.76-71-23.54-124.12-52.9-158.07C46.7,132.9,32.67,125,23.77,121.27c34-60.09,116.53-83.95,121.59-85.36a33.13,33.13,0,0,1,5.47-.51c3.81,0,5.89,1,6.56,1.85a7.78,7.78,0,0,1,.39.8l.53,1.71.47,1.71a2.22,2.22,0,0,0-.41,1.67c-.48.18.78,0,0,0l.24,5.29h0l-9,5.91,70.16,213.18-54.41,21.2Z"/><path class="cls-2" d="M985.06,286.19l-52.12-20.32L994.41,50.11l1.45-8.25.77-2.14.3-.66,0-1.24a5.91,5.91,0,0,1,1.67-.2,18.31,18.31,0,0,1,4.85.8l2.08.58c12.75,3.83,84.63,27.38,116.87,81-9.15,4.22-22.17,12.36-35.5,27.76-29.3,33.87-47.21,86.46-53.3,156.44Z"/><path class="cls-1" d="M1042.89,156.89a13.93,13.93,0,0,1-4.78-.85l-76.52-27.86c-6.41-2.33-9.82-8.87-7.85-15L975.85,44a13.13,13.13,0,0,1,12.63-8.79,14.6,14.6,0,0,1,2.77.27,179,179,0,0,1,37.18,12.58c26.76,12.67,42.11,30,44.4,50.15.4,3.37,1.65,23-18.82,52.95A13.46,13.46,0,0,1,1042.89,156.89Z"/><path d="M966.37,116.69l22.12-69.11s66.89,13.39,71.23,52c0,0,2.44,16.78-16.82,45Z"/><path class="cls-1" d="M109.89,156.89a13.43,13.43,0,0,1-11.11-5.69C78.3,121.25,79.55,101.61,80,98.25c2.28-20.14,17.63-37.48,44.39-50.15a179.22,179.22,0,0,1,37.18-12.58,14.6,14.6,0,0,1,2.77-.27A13.12,13.12,0,0,1,176.93,44L199,113.16c2,6.15-1.44,12.69-7.84,15L114.67,156A13.93,13.93,0,0,1,109.89,156.89Z"/><path d="M186.41,116.69,164.3,47.58S97.4,61,93.06,99.6c0,0-2.44,16.78,16.83,45Z"/><path class="cls-1" d="M186.73,323.65c-18.9,0-31-10.46-32.59-28-1.48-7.09-16.47-75.75-55.58-144.71-2.56-3.6-14.45-21.07-17.84-39.11A36.75,36.75,0,0,1,80,97.71c1-6.07,6.6-10.45,13-10.45a13.34,13.34,0,0,1,1.53.09c7,.76,12.17,6.58,11.63,13.19a25.32,25.32,0,0,0,.32,6.07,3.2,3.2,0,0,0,.49,1,6,6,0,0,0,2.49.35c4.13,0,14.08-1.71,34.23-13.17l.58-.31C146.19,93.5,190.92,71,261,48.3A1004.77,1004.77,0,0,1,383.91,16.68C434.54,7.12,483.84,2.27,530.44,2.27c3.19,0,6.4,0,9.58.07C544.44,1.79,561.16,0,588.8,0,658.17,0,803.45,11.55,997,88.89a13.78,13.78,0,0,1,2,1c10.85,6.57,32.55,17,44.56,17a13.52,13.52,0,0,0,2.08-.15c1.92-3.76,3-5.87,3.07-6a13.32,13.32,0,0,1,11.86-6.93,14,14,0,0,1,3.94.56c6.23,1.83,10.09,7.64,9.09,13.67a27.54,27.54,0,0,1-6.76,14.43c-14.9,29.56-59.35,120.17-69.55,168.83a26,26,0,0,1-5.89,13.39c-4.68,5.63-14,12.35-31.92,12.35a94.78,94.78,0,0,1-15.59-1.42,13.87,13.87,0,0,1-2.77-.77C939,314,733,233.55,600.57,233.55c-4.27,0-8.48.09-12.5.25l-.59,0c-.26,0-.53,0-.79,0,0,0-4.39-.23-12.39-.23-39.56,0-182,5.93-354.75,82.25C217.34,316.83,201.86,323.65,186.73,323.65Z"/><path d="M93.06,99.6s-7,42.42,57.53,5.7c0,0,185.62-93.85,390.22-90.62,0,0,175.3-24.62,451,85.55,0,0,63.32,38.41,68.75,5.91,0,0-63.86,122.63-76.35,183.41,0,0-.54,20.26-38,13.93,0,0-222.78-87.69-358.74-82,0,0-164.44-9.26-373.66,83.23,0,0-44.41,20.51-46.58-10.73,0,0-14.48-74.08-57.35-149.43C109.89,144.55,91.43,119.54,93.06,99.6Z"/><path class="cls-2" d="M186.73,300.66c-9.86,0-10.17-4.36-10.39-7.54l-.05-.76-.15-.75c-.6-3.1-15.34-76.85-58.64-153l-.31-.56-.38-.5c-1-1.4-2.63-3.79-4.4-6.79,10.89-.79,24.67-6,42-15.82,3.11-1.55,47.29-23.35,113.72-44.88,63.16-20.46,159.93-44.85,262.32-44.85,3.41,0,6.86,0,10.25.08h.61l.61-.08c.16,0,16.69-2.28,46.89-2.28,67.72,0,209.61,11.33,399.43,87.08,4.43,2.62,29.63,17.1,50,19.46-21,42.71-54,114.19-62.88,157.54l-.22,1.06v.43c-.55,1.69-4.18,5.49-15.63,5.49a70.35,70.35,0,0,1-11.14-1c-7-2.69-57.23-22-121.43-41C734.15,224.51,658,210.56,600.57,210.56c-4.45,0-8.84.08-13.05.26-1.32-.07-5.83-.25-13.22-.25-40.65,0-187,6.07-363.72,84.17l-.12.06C210.34,294.85,197.55,300.66,186.73,300.66Z"/><path class="cls-4" d="M230.78,163c15.46-4.58,57.87-18.76,64.72,5.65,7.56,26.89-27.78,40.47-47.16,47.18-21.5,7.46-52.6,17.59-66.53-7.69q16.83-6.9,33.84-13.33c7.3,5.24,17.68,2.72,25.36-.09,6.42-2.34,22.45-10.83,19.91-15.63-2.2-4.17-18.63,1.17-25.05,3-15.3,4.46-56.18,20.92-65.47-1.55C159,153,199,135.94,218.3,129.3c21.92-7.55,57.43-17.83,69.08,10.66q-17.86,5.13-35.58,10.75c-7.56-5.88-18-3-26.15-.24-6.34,2.13-23.29,11.56-20.43,16.41C207.5,170.74,225,164.7,230.78,163Z"/><path class="cls-4" d="M351,185l-13.89-58q-20.46,5-40.74,10.62-3.76-13.32-7.51-26.64A1170.9,1170.9,0,0,1,408.4,84.44q2.24,13.65,4.48,27.31-20.7,3.47-41.25,7.59,6,29.22,12,58.43Q367.24,181.1,351,185Z"/><path class="cls-4" d="M510.24,72.52q18-1.17,36.09-1.86.82,23.43,1.64,46.87c1.53,33-28.88,43.67-56.4,46.24s-59.45-2.25-64.05-35Q424,105.59,420.46,82.4q17.88-2.66,35.81-4.84,2.63,22.22,5.26,44.45c1.06,14.5,16.35,15.24,27.47,14.2s26-4.6,24.29-19Q511.76,94.85,510.24,72.52Z"/><path class="cls-4" d="M644.85,71.8c24.42.39,42,23.39,39.75,46.78C682.48,140.46,663.25,161.2,640,159q-37.83-1.93-75.67-1.34-.87-43.64-1.75-87.29Q603.75,69.68,644.85,71.8Zm-8.1,27.28q-19.25-.87-38.48-1.19l-.42,32q18.67.33,37.32,1.17c8.75.47,14.33-7.19,14.84-15.18C650.54,107.67,645.64,99.44,636.75,99.08Z"/><path d="M706.82,147.56c-.83,6.82-1.24,10.23-2.07,17.05q-11.1-1.29-22.21-2.43c.68-6.84,1-10.26,1.68-17.09Q695.53,146.25,706.82,147.56Z"/><path d="M788.56,153.48c-4.67,20-27.24,20.75-43.55,18.25-18.58-2.85-37.79-12.15-35.24-34l.52-4.25C712,110.44,737,107.93,754.9,110.91c16.51,2.74,39.33,11.63,35.66,32.72q-11.65-2.31-23.33-4.46c-1.5-6.82-9.58-8.88-15.33-9.84-7.38-1.23-17.58-.72-18.92,8.67-.08.57-.12.86-.21,1.43-1.34,9.2,7.75,12.87,15.23,13.93s14.37,1,17.46-4.29Q777,151.19,788.56,153.48Z"/><path d="M874.3,167.29l-1.2,4.11c-5.18,21.72-28.67,21.38-46,17.23-18.31-4.38-36.79-15.24-32.42-36.83l.88-4.2c3.66-22.93,28.89-23,46.49-18.74C860.23,133.28,881.09,145.27,874.3,167.29Zm-22.73-4.91c2.72-9.38-6.76-13.47-14-15.46s-17.55-2.21-19.69,7l-.32,1.4c-2.13,9.11,6.7,13.54,14.1,15.22s17.28,2.55,19.58-6.8Z"/><path d="M888.7,143.16q14.31,4.35,28.52,9,6.66,17.64,12.81,35.44,16.05-9.92,32.39-19.36,14,5.42,27.93,11.11-11.24,27.13-22.48,54.26-10.51-4.31-21.09-8.46,5.67-14.59,11.33-29.21-16.46,10.38-32.59,21.24c-4.26-1.54-6.4-2.3-10.67-3.79q-5.64-18.62-11.8-37l-9.66,29.8q-10.75-3.44-21.54-6.72Q880.27,171.3,888.7,143.16Z"/><path d="M109.51,107.93s-21.23.87-12.83-20.46L115.48,86l1.2.14,5.2,10.4-.53,6.13Z"/><path d="M1043.55,106.87s19.8,1.62,14.47-14.55l-8.36-5.16-9.24.53-5.69,11.56Z"/><path d="M985.09,151.59l10.49,3.76-.72,2-4-1.43-4.67,13-2.46-.88,4.66-13-4-1.44Z"/><path d="M998.06,156.24l2.66.95,1,13.67,9.48-9.89,2.63.94-5.38,15-2.47-.88,3.69-10.29-8.27,8.65-1.71-.61-.91-11.94-3.69,10.29-2.46-.89Z"/><path d="M815.07,288.44l5.41-.27,0,1-2.06.1.33,6.71-1.27.06-.34-6.71-2.07.11Z"/><path d="M821.76,288.11l1.37-.07,3,5.94,2.41-6.21,1.36-.07.38,7.75-1.27.06-.26-5.3-2.1,5.42-.88,0-2.64-5.19.26,5.31-1.27.07Z"/></g></g></svg>