<svg id="Layer_1" data-name="Layer 1" xmlns="http://www.w3.org/2000/svg" viewBox="0 0 775.76 906.6"><defs><style>.cls-1{stroke:#fff;stroke-miterlimit:10;}.cls-2{fill:#ccc;}</style></defs><title>horseshoes</title><path class="cls-1" d="M404.75,236.89A23.88,23.88,0,1,0,380.87,213a23.88,23.88,0,0,0,23.88,23.88" transform="translate(-295.12 136.8)"/><path class="cls-1" d="M407.7,347.61a23.88,23.88,0,1,0-23.88,23.88,23.89,23.89,0,0,0,23.88-23.88" transform="translate(-295.12 136.8)"/><path class="cls-1" d="M410.34,458.32a23.89,23.89,0,1,0,23.88,23.89,23.9,23.9,0,0,0-23.88-23.89" transform="translate(-295.12 136.8)"/><path class="cls-1" d="M495,563a23.88,23.88,0,1,0,23.88,23.88A23.88,23.88,0,0,0,495,563" transform="translate(-295.12 136.8)"/><path class="cls-2" d="M920.68-39.92c0-32.8,32.8-34.72,32.8-34.72V-136.8H854.12S823.42-98,823.42-32.44c0,138.12,97.06,225.6,97.06,368.32S816.89,577.58,683,577.58s-237.48-99-237.48-241.7,97.06-230.2,97.06-368.32c0-65.6-30.7-104.36-30.7-104.36H412.52v62.16s32.8,1.92,32.8,34.72c0,68.48-150.2,189.34-150.2,443.71,0,145,96.68,366,387.88,366s387.88-221,387.88-366c0-254.37-150.2-375.23-150.2-443.71m4.41-56L932-122v38.56s-26.27,1.91-26.27,42.78c0,34.52,28.2,81.33,28.2,81.33S890.47-2.8,890.47-49.13s34.62-46.81,34.62-46.81M460.29-40.68c0-40.87-26.28-42.78-26.28-42.78V-122l6.9,26.08s34.63.49,34.63,46.81-43.45,89.78-43.45,89.78,28.2-46.81,28.2-81.33M493.24,663c-65-33.88-165.89-116-165.89-299.46,0-118.85,48.48-208.34,86.88-281.4a39.21,39.21,0,0,1,70.82,33.55c-28.32,66.64-61.79,132.58-61.79,228.65,0,127.82,74.58,195.47,122.74,225.84A53.45,53.45,0,0,1,567,636l-.06.15A53.28,53.28,0,0,1,493.24,663m304.29,70.58c-21.47,6.09-60.63,14.39-114.53,14.39s-93.06-8.3-114.53-14.39a21.09,21.09,0,0,1-15.31-20.26,20.5,20.5,0,0,1,.52-4.64,21.07,21.07,0,0,1,24.79-16c23.7,4.88,64.86,12,104.53,12s80.83-7.07,104.53-12a21.08,21.08,0,0,1,10,40.92M872.76,663a53.28,53.28,0,0,1-73.68-26.84L799,636a53.45,53.45,0,0,1,21-65.83c48.16-30.37,122.74-98,122.74-225.84,0-96.07-33.47-162-61.79-228.65A39.22,39.22,0,0,1,951.77,82.1c38.41,73.06,86.89,162.55,86.89,281.4,0,183.43-100.94,265.58-165.9,299.46" transform="translate(-295.12 136.8)"/><path class="cls-1" d="M961.25,236.89A23.88,23.88,0,1,0,937.37,213a23.88,23.88,0,0,0,23.88,23.88" transform="translate(-295.12 136.8)"/><path class="cls-1" d="M982.18,323.72a23.89,23.89,0,1,0,23.88,23.89,23.89,23.89,0,0,0-23.88-23.89" transform="translate(-295.12 136.8)"/><path class="cls-1" d="M955.66,458.32a23.89,23.89,0,1,0,23.89,23.89,23.89,23.89,0,0,0-23.89-23.89" transform="translate(-295.12 136.8)"/><path class="cls-1" d="M871.05,563a23.88,23.88,0,1,0,23.89,23.88A23.88,23.88,0,0,0,871.05,563" transform="translate(-295.12 136.8)"/></svg>