<svg xmlns="http://www.w3.org/2000/svg" viewBox="0 0 412.18 396.45"><defs><style>.cls-1{fill:#ff9100;}.cls-2{fill:#f50;}</style></defs><title>Asset 1</title><g id="Layer_2" data-name="Layer 2"><g id="Layer_1-2" data-name="Layer 1"><path class="cls-1" d="M412.18,164.12A240.19,240.19,0,0,1,378.9,277.65a242.56,242.56,0,0,1-67.94,74,240.37,240.37,0,0,1-140.12,44.79A242.76,242.76,0,0,1,144.28,395c17.51-18.88,38.69-49.64,51.85-96.32,25.66-91-3.71-131-3.71-131s-12.1,26.14-38.24,36.46-49.7,6.78-67.13,9.2-51.31,19.21-51.31,19.21C10.73,224.93.25,209.6.25,209.6c-.43-2.37-.27-6.19.24-10.8,2-18.27,9.76-48.74,9.76-48.74l15-4.11,95.12-73.34s13.8-16.7,16-38.72A51.54,51.54,0,0,1,154,0a37.37,37.37,0,0,0,13.92,22c27.53-27.59,71.59-1.7,86.65,1.09-5,1.08-12.23,4.47-14.41,10.52C262.69,51.8,314.49,38.24,357,91.33c0,0-13.62-4.25-16,6.13-2.8,12.34,49.74,23,71.15,66.66"/><path class="cls-2" d="M260.34,379.32a240.86,240.86,0,0,1-89.5,17.13A242.76,242.76,0,0,1,144.28,395c17.51-18.88,38.69-49.64,51.85-96.32,25.66-91-3.71-131-3.71-131s-12.1,26.14-38.24,36.46-49.7,6.78-67.13,9.2-51.31,19.21-51.31,19.21C10.73,224.93.25,209.6.25,209.6c-.43-2.37-.27-6.19.24-10.8,1.84,4.84,4.9,10.38,9.76,13.11,0,0,15.32,0,40.82-12.31s67.13-6.77,95.69-24,34.37-33.88,41-52.28S196,96,212.27,90.69c0,0,13.59-44.46,0-50.63,0,0-14.44-2.9-39.62,16.21,0,0,10.09-23.52,54-34.17,0,0,14.52,15.17,13.31,72.78,0,0-16.46,28.32-20.57,41.15,0,0,89.49,101.42,41,243.29"/><path class="cls-2" d="M378.9,277.65a242.56,242.56,0,0,1-67.94,74c27.15-126.27-26.73-196.73-26.73-196.73,53.68,35.44,83,94.38,94.67,122.72"/></g></g></svg>